<svg width="153" height="148" viewBox="0 0 153 148" fill="none" xmlns="http://www.w3.org/2000/svg">
<rect width="153" height="147" transform="translate(0 0.5)" fill="#211F27"/>
<mask id="mask0_11_392" style="mask-type:luminance" maskUnits="userSpaceOnUse" x="53" y="17" width="47" height="55">
<path d="M99.848 17.5009H53.152V71.4991H99.848V17.5009Z" fill="white"/>
</mask>
<g mask="url(#mask0_11_392)">
<path d="M95.3691 41.4806L99.848 44.5L76.4961 60.2495L53.152 44.5L57.629 41.4806L76.4961 54.2107L95.3691 41.4806ZM76.4961 65.4581L57.629 52.7279L53.152 55.7496L76.4961 71.4991L99.848 55.7496L95.3691 52.7302L76.4961 65.4581ZM99.848 33.2504L76.4961 17.5009L53.152 33.2504L76.4961 48.9999L99.848 33.2504Z" fill="#EAEAEA"/>
</g>
<path d="M26.808 118.955H17.496L15.896 123.499H12.088L20.056 101.227H24.28L32.248 123.499H28.408L26.808 118.955ZM25.784 115.979L22.168 105.643L18.52 115.979H25.784ZM39.3605 99.8191V123.499H35.7125V99.8191H39.3605ZM47.798 108.491C48.4167 107.638 49.2593 106.944 50.326 106.411C51.414 105.856 52.6193 105.579 53.942 105.579C55.4993 105.579 56.9073 105.952 58.166 106.699C59.4247 107.446 60.4167 108.512 61.142 109.899C61.8673 111.264 62.23 112.832 62.23 114.603C62.23 116.374 61.8673 117.963 61.142 119.371C60.4167 120.758 59.414 121.846 58.134 122.635C56.8753 123.403 55.478 123.787 53.942 123.787C52.5767 123.787 51.3607 123.52 50.294 122.987C49.2487 122.454 48.4167 121.771 47.798 120.939V123.499H44.15V99.8191H47.798V108.491ZM58.518 114.603C58.518 113.387 58.262 112.342 57.75 111.467C57.2593 110.571 56.598 109.899 55.766 109.451C54.9553 108.982 54.0807 108.747 53.142 108.747C52.2247 108.747 51.35 108.982 50.518 109.451C49.7073 109.92 49.046 110.603 48.534 111.499C48.0433 112.395 47.798 113.451 47.798 114.667C47.798 115.883 48.0433 116.95 48.534 117.867C49.046 118.763 49.7073 119.446 50.518 119.915C51.35 120.384 52.2247 120.619 53.142 120.619C54.0807 120.619 54.9553 120.384 55.766 119.915C56.598 119.424 57.2593 118.72 57.75 117.803C58.262 116.886 58.518 115.819 58.518 114.603ZM81.8055 105.867V123.499H78.1575V121.419C77.5815 122.144 76.8242 122.72 75.8855 123.147C74.9682 123.552 73.9868 123.755 72.9415 123.755C71.5548 123.755 70.3068 123.467 69.1975 122.891C68.1095 122.315 67.2455 121.462 66.6055 120.331C65.9868 119.2 65.6775 117.835 65.6775 116.235V105.867H69.2935V115.691C69.2935 117.27 69.6882 118.486 70.4775 119.339C71.2668 120.171 72.3442 120.587 73.7095 120.587C75.0748 120.587 76.1522 120.171 76.9415 119.339C77.7522 118.486 78.1575 117.27 78.1575 115.691V105.867H81.8055ZM107.963 105.579C109.349 105.579 110.587 105.867 111.675 106.443C112.784 107.019 113.648 107.872 114.267 109.003C114.907 110.134 115.227 111.499 115.227 113.099V123.499H111.611V113.643C111.611 112.064 111.216 110.859 110.427 110.027C109.637 109.174 108.56 108.747 107.195 108.747C105.829 108.747 104.741 109.174 103.931 110.027C103.141 110.859 102.747 112.064 102.747 113.643V123.499H99.1308V113.643C99.1308 112.064 98.7361 110.859 97.9468 110.027C97.1574 109.174 96.0801 108.747 94.7148 108.747C93.3494 108.747 92.2614 109.174 91.4508 110.027C90.6614 110.859 90.2668 112.064 90.2668 113.643V123.499H86.6188V105.867H90.2668V107.883C90.8641 107.158 91.6214 106.592 92.5388 106.187C93.4561 105.782 94.4374 105.579 95.4828 105.579C96.8908 105.579 98.1494 105.878 99.2588 106.475C100.368 107.072 101.221 107.936 101.819 109.067C102.352 108 103.184 107.158 104.315 106.539C105.445 105.899 106.661 105.579 107.963 105.579ZM126.269 123.787C124.882 123.787 123.634 123.542 122.525 123.051C121.437 122.539 120.573 121.856 119.933 121.003C119.293 120.128 118.951 119.158 118.909 118.091H122.685C122.749 118.838 123.101 119.467 123.741 119.979C124.402 120.47 125.223 120.715 126.205 120.715C127.229 120.715 128.018 120.523 128.573 120.139C129.149 119.734 129.437 119.222 129.437 118.603C129.437 117.942 129.117 117.451 128.477 117.131C127.858 116.811 126.866 116.459 125.501 116.075C124.178 115.712 123.101 115.36 122.269 115.019C121.437 114.678 120.711 114.155 120.093 113.451C119.495 112.747 119.197 111.819 119.197 110.667C119.197 109.728 119.474 108.875 120.029 108.107C120.583 107.318 121.373 106.699 122.397 106.251C123.442 105.803 124.637 105.579 125.981 105.579C127.986 105.579 129.597 106.091 130.813 107.115C132.05 108.118 132.711 109.494 132.797 111.243H129.149C129.085 110.454 128.765 109.824 128.189 109.355C127.613 108.886 126.834 108.651 125.853 108.651C124.893 108.651 124.157 108.832 123.645 109.195C123.133 109.558 122.877 110.038 122.877 110.635C122.877 111.104 123.047 111.499 123.389 111.819C123.73 112.139 124.146 112.395 124.637 112.587C125.127 112.758 125.853 112.982 126.813 113.259C128.093 113.6 129.138 113.952 129.949 114.315C130.781 114.656 131.495 115.168 132.093 115.851C132.69 116.534 132.999 117.44 133.021 118.571C133.021 119.574 132.743 120.47 132.189 121.259C131.634 122.048 130.845 122.667 129.821 123.115C128.818 123.563 127.634 123.787 126.269 123.787Z" fill="white"/>
</svg>
