<svg width="153" height="148" viewBox="0 0 153 148" fill="none" xmlns="http://www.w3.org/2000/svg">
<rect width="153" height="147" transform="translate(0 0.5)" fill="#211F27"/>
<path d="M84.4333 43.1694C82.0663 45.0639 66.566 57.4749 62.9773 60.3504L56.909 54.2821L74.162 32.8981L84.4333 43.1694ZM96.3785 20.9687C91.7548 16.3449 84.2555 16.3449 79.6318 20.9687C76.583 24.0197 76.3243 27.3632 76.1758 28.5489L88.7983 41.1714C89.8873 41.0499 93.3028 40.7911 96.3785 37.7154C101.005 33.0916 101.005 25.5924 96.3785 20.9687ZM74.252 61.3336C69.095 61.3336 66.7393 64.5444 63.416 66.6324C61.0625 68.1084 58.835 67.3591 57.764 66.0339C57.3748 65.5591 56.2633 63.8491 58.1555 61.8894L57.8743 61.6081L55.3408 59.1534C52.2538 62.3394 52.8005 66.1464 54.713 68.5066C56.9068 71.2156 61.319 72.5836 65.5018 69.9579C69.068 67.7191 70.6475 65.2599 74.252 65.2599C76.583 65.2599 78.707 66.3039 82.0933 71.4991L85.3805 69.3571C82.2463 64.5421 79.1525 61.3336 74.252 61.3336Z" fill="#EAEAEA"/>
<path d="M23.434 112.331C23.434 110.155 23.9353 108.203 24.938 106.475C25.962 104.747 27.338 103.403 29.066 102.443C30.8153 101.462 32.7247 100.971 34.794 100.971C37.162 100.971 39.2633 101.558 41.098 102.731C42.954 103.883 44.298 105.526 45.13 107.659H40.746C40.17 106.486 39.37 105.611 38.346 105.035C37.322 104.459 36.138 104.171 34.794 104.171C33.322 104.171 32.01 104.502 30.858 105.163C29.706 105.824 28.7993 106.774 28.138 108.011C27.498 109.248 27.178 110.688 27.178 112.331C27.178 113.974 27.498 115.414 28.138 116.651C28.7993 117.888 29.706 118.848 30.858 119.531C32.01 120.192 33.322 120.523 34.794 120.523C36.138 120.523 37.322 120.235 38.346 119.659C39.37 119.083 40.17 118.208 40.746 117.035H45.13C44.298 119.168 42.954 120.811 41.098 121.963C39.2633 123.115 37.162 123.691 34.794 123.691C32.7033 123.691 30.794 123.211 29.066 122.251C27.338 121.27 25.962 119.915 24.938 118.187C23.9353 116.459 23.434 114.507 23.434 112.331ZM58.52 105.579C59.864 105.579 61.0587 105.867 62.104 106.443C63.1707 107.019 64.0027 107.872 64.6 109.003C65.2187 110.134 65.528 111.499 65.528 113.099V123.499H61.912V113.643C61.912 112.064 61.5173 110.859 60.728 110.027C59.9387 109.174 58.8613 108.747 57.496 108.747C56.1307 108.747 55.0427 109.174 54.232 110.027C53.4427 110.859 53.048 112.064 53.048 113.643V123.499H49.4V99.8191H53.048V107.915C53.6667 107.168 54.4453 106.592 55.384 106.187C56.344 105.782 57.3893 105.579 58.52 105.579ZM68.9653 114.603C68.9653 112.832 69.3279 111.264 70.0533 109.899C70.7999 108.534 71.8026 107.478 73.0613 106.731C74.3413 105.963 75.7493 105.579 77.2853 105.579C78.6719 105.579 79.8773 105.856 80.9013 106.411C81.9466 106.944 82.7786 107.616 83.3973 108.427V105.867H87.0773V123.499H83.3973V120.875C82.7786 121.707 81.9359 122.4 80.8693 122.955C79.8026 123.51 78.5866 123.787 77.2213 123.787C75.7066 123.787 74.3199 123.403 73.0613 122.635C71.8026 121.846 70.7999 120.758 70.0533 119.371C69.3279 117.963 68.9653 116.374 68.9653 114.603ZM83.3973 114.667C83.3973 113.451 83.1413 112.395 82.6293 111.499C82.1386 110.603 81.4879 109.92 80.6773 109.451C79.8666 108.982 78.9919 108.747 78.0533 108.747C77.1146 108.747 76.2399 108.982 75.4293 109.451C74.6186 109.899 73.9573 110.571 73.4453 111.467C72.9546 112.342 72.7093 113.387 72.7093 114.603C72.7093 115.819 72.9546 116.886 73.4453 117.803C73.9573 118.72 74.6186 119.424 75.4293 119.915C76.2613 120.384 77.1359 120.619 78.0533 120.619C78.9919 120.619 79.8666 120.384 80.6773 119.915C81.4879 119.446 82.1386 118.763 82.6293 117.867C83.1413 116.95 83.3973 115.883 83.3973 114.667ZM95.5168 108.427C96.0501 107.531 96.7541 106.838 97.6288 106.347C98.5248 105.835 99.5808 105.579 100.797 105.579V109.355H99.8688C98.4394 109.355 97.3514 109.718 96.6048 110.443C95.8794 111.168 95.5168 112.427 95.5168 114.219V123.499H91.8688V105.867H95.5168V108.427ZM108.406 108.843V118.603C108.406 119.264 108.555 119.744 108.854 120.043C109.174 120.32 109.707 120.459 110.454 120.459H112.694V123.499H109.814C108.171 123.499 106.913 123.115 106.038 122.347C105.163 121.579 104.726 120.331 104.726 118.603V108.843H102.646V105.867H104.726V101.483H108.406V105.867H112.694V108.843H108.406ZM122.456 123.787C121.07 123.787 119.822 123.542 118.712 123.051C117.624 122.539 116.76 121.856 116.12 121.003C115.48 120.128 115.139 119.158 115.096 118.091H118.872C118.936 118.838 119.288 119.467 119.928 119.979C120.59 120.47 121.411 120.715 122.392 120.715C123.416 120.715 124.206 120.523 124.76 120.139C125.336 119.734 125.624 119.222 125.624 118.603C125.624 117.942 125.304 117.451 124.664 117.131C124.046 116.811 123.054 116.459 121.688 116.075C120.366 115.712 119.288 115.36 118.456 115.019C117.624 114.678 116.899 114.155 116.28 113.451C115.683 112.747 115.384 111.819 115.384 110.667C115.384 109.728 115.662 108.875 116.216 108.107C116.771 107.318 117.56 106.699 118.584 106.251C119.63 105.803 120.824 105.579 122.168 105.579C124.174 105.579 125.784 106.091 127 107.115C128.238 108.118 128.899 109.494 128.984 111.243H125.336C125.272 110.454 124.952 109.824 124.376 109.355C123.8 108.886 123.022 108.651 122.04 108.651C121.08 108.651 120.344 108.832 119.832 109.195C119.32 109.558 119.064 110.038 119.064 110.635C119.064 111.104 119.235 111.499 119.576 111.819C119.918 112.139 120.334 112.395 120.824 112.587C121.315 112.758 122.04 112.982 123 113.259C124.28 113.6 125.326 113.952 126.136 114.315C126.968 114.656 127.683 115.168 128.28 115.851C128.878 116.534 129.187 117.44 129.208 118.571C129.208 119.574 128.931 120.47 128.376 121.259C127.822 122.048 127.032 122.667 126.008 123.115C125.006 123.563 123.822 123.787 122.456 123.787Z" fill="white"/>
</svg>
