<svg width="153" height="148" viewBox="0 0 153 148" fill="none" xmlns="http://www.w3.org/2000/svg">
<rect width="153" height="147" transform="translate(0 0.5)" fill="#211F27"/>
<mask id="mask0_35_175" style="mask-type:luminance" maskUnits="userSpaceOnUse" x="49" y="17" width="55" height="55">
<path d="M103.5 17.5H49.5V71.5H103.5V17.5Z" fill="white"/>
</mask>
<g mask="url(#mask0_35_175)">
<mask id="mask1_35_175" style="mask-type:luminance" maskUnits="userSpaceOnUse" x="49" y="17" width="55" height="55">
<path d="M103.5 17.5H49.5V71.5H103.5V17.5Z" fill="white"/>
</mask>
<g mask="url(#mask1_35_175)">
<path d="M76.5 22C88.9065 22 98.9999 32.0935 98.9999 44.5C98.9999 56.9065 88.9065 67 76.5 67C64.0935 67 54 56.9065 54 44.5C54 32.0935 64.0935 22 76.5 22ZM76.5 17.5C61.5892 17.5 49.5 29.5893 49.5 44.5C49.5 59.4108 61.5892 71.5 76.5 71.5C91.4107 71.5 103.5 59.4108 103.5 44.5C103.5 29.5893 91.4107 17.5 76.5 17.5ZM81 44.5L70.875 54.625L74.3108 58L87.75 44.5L74.3108 31L70.875 34.375L81 44.5Z" fill="#EAEAEA"/>
</g>
</g>
<path d="M61.9959 101.26V123.5H58.3479V108.268L51.5639 123.5H49.0359L42.2199 108.268V123.5H38.5719V101.26H42.5079L50.3159 118.7L58.0919 101.26H61.9959ZM74.4386 123.788C72.7746 123.788 71.2706 123.415 69.9266 122.668C68.5826 121.9 67.5266 120.833 66.7586 119.468C65.9906 118.081 65.6066 116.481 65.6066 114.668C65.6066 112.876 66.0013 111.287 66.7906 109.9C67.58 108.513 68.6573 107.447 70.0226 106.7C71.388 105.953 72.9133 105.58 74.5986 105.58C76.284 105.58 77.8093 105.953 79.1746 106.7C80.54 107.447 81.6173 108.513 82.4066 109.9C83.196 111.287 83.5906 112.876 83.5906 114.668C83.5906 116.46 83.1853 118.049 82.3746 119.436C81.564 120.823 80.4546 121.9 79.0466 122.668C77.66 123.415 76.124 123.788 74.4386 123.788ZM74.4386 120.62C75.3773 120.62 76.252 120.396 77.0626 119.948C77.8946 119.5 78.5666 118.828 79.0786 117.932C79.5906 117.036 79.8466 115.948 79.8466 114.668C79.8466 113.388 79.6013 112.311 79.1106 111.436C78.62 110.54 77.9693 109.868 77.1586 109.42C76.348 108.972 75.4733 108.748 74.5346 108.748C73.596 108.748 72.7213 108.972 71.9106 109.42C71.1213 109.868 70.492 110.54 70.0226 111.436C69.5533 112.311 69.3186 113.388 69.3186 114.668C69.3186 116.567 69.7986 118.039 70.7586 119.084C71.74 120.108 72.9666 120.62 74.4386 120.62ZM90.8449 108.428C91.3782 107.532 92.0822 106.839 92.9569 106.348C93.8529 105.836 94.9089 105.58 96.1249 105.58V109.356H95.1969C93.7675 109.356 92.6795 109.719 91.9329 110.444C91.2075 111.169 90.8449 112.428 90.8449 114.22V123.5H87.1969V105.868H90.8449V108.428ZM115.638 114.252C115.638 114.913 115.595 115.511 115.51 116.044H102.038C102.145 117.452 102.667 118.583 103.606 119.436C104.545 120.289 105.697 120.716 107.062 120.716C109.025 120.716 110.411 119.895 111.222 118.252H115.158C114.625 119.873 113.654 121.207 112.246 122.252C110.859 123.276 109.131 123.788 107.062 123.788C105.377 123.788 103.862 123.415 102.518 122.668C101.195 121.9 100.15 120.833 99.3821 119.468C98.6355 118.081 98.2621 116.481 98.2621 114.668C98.2621 112.855 98.6248 111.265 99.3501 109.9C100.097 108.513 101.131 107.447 102.454 106.7C103.798 105.953 105.334 105.58 107.062 105.58C108.726 105.58 110.209 105.943 111.51 106.668C112.811 107.393 113.825 108.417 114.55 109.74C115.275 111.041 115.638 112.545 115.638 114.252ZM111.83 113.1C111.809 111.756 111.329 110.679 110.39 109.868C109.451 109.057 108.289 108.652 106.902 108.652C105.643 108.652 104.566 109.057 103.67 109.868C102.774 110.657 102.241 111.735 102.07 113.1H111.83Z" fill="white"/>
</svg>
